<svg xmlns="http://www.w3.org/2000/svg" width="32" height="32" viewBox="0 0 933 899" version="1.1"><path d="M 317.667 163.667 C 317.300 164.033, 317 287.768, 317 438.631 C 317 708.799, 317.029 712.945, 318.934 713.965 C 321.652 715.420, 685.015 715.388, 694 713.932 C 725.460 708.835, 750.098 686.400, 757.948 655.702 C 760.741 644.784, 760.899 634.581, 761.524 424.953 C 762.099 232.464, 762.117 233.401, 757.409 219.307 C 747.938 190.953, 725.477 170.408, 697.500 164.510 C 691.475 163.240, 664.589 163.032, 504.417 163.017 C 402.071 163.008, 318.033 163.300, 317.667 163.667 M 259.500 180.672 C 238.928 181.773, 225.876 184.287, 215.006 189.241 C 191.016 200.175, 177.599 218.006, 171.482 247.084 C 170.260 252.897, 170 265.577, 170 319.516 C 170 386.643, 169.750 391.573, 165.974 399 C 161.675 407.457, 155.802 410, 140.578 410 C 133.217 410, 128.990 410.410, 128.200 411.200 C 127.328 412.072, 127 419.570, 127 438.665 C 127 462.663, 127.151 465.009, 128.750 465.847 C 129.713 466.352, 135.900 466.961, 142.500 467.200 C 156.027 467.690, 159.223 468.804, 163.609 474.554 C 169.328 482.052, 169.356 482.411, 170.034 557.500 C 170.584 618.512, 170.860 627.368, 172.421 634 C 179.436 663.811, 199.919 684.964, 228.500 691.911 C 240.206 694.756, 287.799 698.061, 290.604 696.223 C 291.339 695.742, 291.898 686.562, 292.276 668.744 C 292.740 646.953, 292.593 641.736, 291.486 640.629 C 290.539 639.682, 286.246 639.127, 277.314 638.796 C 266.028 638.379, 263.823 638, 258.818 635.621 C 249.851 631.357, 244.805 624.493, 241.413 611.940 C 239.880 606.268, 239.589 597.689, 238.980 540 C 238.369 482.233, 238.083 473.792, 236.557 468.500 C 232.913 455.863, 226.644 447.364, 216.758 441.659 C 212.158 439.005, 212.039 437.539, 216.250 435.401 C 225.701 430.603, 232.075 422.462, 236.142 410 C 238.169 403.786, 238.300 400.725, 239.121 340.500 C 239.593 305.850, 240.416 274.021, 240.949 269.770 C 242.189 259.887, 245.845 252.382, 252.475 246.112 C 258.627 240.294, 263.663 238.594, 279.476 236.995 C 285.716 236.365, 290.784 235.371, 291.220 234.693 C 291.642 234.037, 291.878 221.575, 291.744 207 L 291.500 180.500 278.500 180.425 C 271.350 180.384, 262.800 180.495, 259.500 180.672 M 545 208.393 C 545 231.537, 545.195 234.861, 546.582 235.393 C 547.452 235.727, 552.514 236.005, 557.832 236.011 C 576.639 236.032, 586.161 241.549, 593.196 256.500 L 596.490 263.500 597.092 330 C 597.613 387.532, 597.923 397.499, 599.393 403.905 C 602.672 418.202, 607.606 425.261, 620.146 433.597 C 623.916 436.103, 627 438.297, 627 438.473 C 627 438.649, 623.633 440.892, 619.518 443.456 C 608.454 450.352, 603.935 456.492, 599.886 470.128 C 597.759 477.291, 597.679 479.424, 597.062 545.500 C 596.432 612.910, 596.407 613.549, 594.180 619.147 C 591.015 627.103, 585.176 633.337, 577.423 637.037 C 571.974 639.637, 569.118 640.261, 558.834 641.094 C 552.151 641.635, 546.305 642.312, 545.842 642.598 C 545.379 642.884, 545 654.356, 545 668.090 C 545 690.933, 545.149 693.124, 546.750 693.781 C 550.259 695.222, 589.091 694.339, 597.167 692.635 C 634.390 684.780, 655.136 665.109, 662.702 630.500 C 663.956 624.764, 664.348 610.771, 664.876 553 L 665.521 482.500 667.895 477.698 C 672.438 468.509, 677.806 466.022, 695 465.141 L 707.500 464.500 707.766 437.891 L 708.032 411.282 702.766 410.650 C 699.870 410.302, 693.839 410.013, 689.364 410.009 C 674.820 409.993, 667.123 403.706, 665.480 390.500 C 665.137 387.750, 664.752 356.025, 664.623 320 C 664.376 250.626, 664.414 251.263, 659.498 235.634 C 652.546 213.530, 634.815 196.019, 611.500 188.231 C 596.725 183.297, 586.750 182, 563.558 182 L 545 182 545 208.393 M 362.245 440.709 L 362.500 541.500 395.250 541.764 L 428 542.027 428 514.014 L 428 486 440.750 486.005 L 453.500 486.010 471.479 514.005 L 489.458 542 524.229 542 C 552.763 542, 559 541.758, 559 540.649 C 559 539.906, 556.574 535.917, 553.609 531.784 C 548.292 524.375, 519.125 481.998, 515.779 476.821 L 514.058 474.158 519.279 471.210 C 538.791 460.192, 550.064 441.843, 551.952 418.026 C 552.924 405.765, 551.824 395.317, 548.521 385.433 C 544.824 374.371, 541.821 369.601, 533.312 361.276 C 524.897 353.042, 513.158 346.627, 499.500 342.798 C 491.649 340.598, 490.293 340.550, 426.745 340.237 L 361.990 339.918 362.245 440.709 M 428 413 L 428 438 447.557 438 C 458.643 438, 469.035 437.516, 471.549 436.883 C 476.533 435.628, 484.192 429.464, 486.634 424.742 C 489.056 420.057, 488.766 406.422, 486.134 401.264 C 483.374 395.853, 476.883 390.460, 471.499 389.104 C 469.043 388.486, 458.509 388, 447.557 388 L 428 388 428 413" stroke="none" fill="#ff7700" fill-rule="evenodd"/></svg>